<svg width="312" height="147" viewBox="0 0 312 147" fill="none" xmlns="http://www.w3.org/2000/svg">
<g opacity="0.38">
<path d="M40.2598 0V84.4424C40.2598 92.2879 42.0492 98.3441 45.6278 102.611C49.3441 106.878 54.9185 109.011 62.3511 109.011C69.7837 109.011 75.3581 106.878 79.0744 102.611C82.9284 98.2065 84.8553 92.1503 84.8553 84.4424V0H125.322V84.4424C125.322 97.7935 122.5 109.218 116.857 118.715C111.213 128.074 103.506 135.163 93.7331 139.98C84.0983 144.66 73.3624 147 61.5253 147C49.6882 147 39.0899 144.66 29.7303 139.98C20.5084 135.163 13.2135 128.074 7.84551 118.715C2.61517 109.355 0 97.9312 0 84.4424V0H40.2598Z" fill="white" fill-opacity="0.3"/>
<path d="M264.458 145.555L236.173 104.469L212.017 145.555H165.977L213.256 71.0225L164.325 0H212.017L239.477 40.0534L263.013 0H309.054L262.394 73.2935L312.151 145.555H264.458Z" fill="white" fill-opacity="0.3"/>
</g>
</svg>
