<svg width="300" height="147" viewBox="0 0 300 147" fill="none" xmlns="http://www.w3.org/2000/svg">
<g opacity="0.3">
<path d="M41.4751 122.222L23.8275 96.6734L8.75618 122.222H-19.9695L9.52907 75.8751L-21 31.7109H8.75618L25.8885 56.6175L40.5734 31.7109H69.2991L40.1869 77.2873L71.2313 122.222H41.4751Z" fill="white" fill-opacity="0.3"/>
<path d="M145.848 0L111.455 147H87.1087L121.502 0H145.848Z" fill="white" fill-opacity="0.3"/>
<path d="M191.678 31.7109V84.2201C191.678 89.0987 192.794 92.8646 195.027 95.5179C197.346 98.1712 200.824 99.4978 205.461 99.4978C210.098 99.4978 213.576 98.1712 215.895 95.5179C218.3 92.779 219.502 89.0131 219.502 84.2201V31.7109H244.75V84.2201C244.75 92.5223 242.989 99.6262 239.468 105.532C235.947 111.352 231.138 115.76 225.041 118.755C219.03 121.666 212.331 123.121 204.946 123.121C197.561 123.121 190.948 121.666 185.108 118.755C179.355 115.76 174.803 111.352 171.454 105.532C168.191 99.7118 166.559 92.6079 166.559 84.2201V31.7109H191.678Z" fill="white" fill-opacity="0.3"/>
<path d="M300 31.7109V122.222H274.752V31.7109H300Z" fill="white" fill-opacity="0.3"/>
</g>
</svg>
